Coordinates
version=1
nRows=22
nColumns=18
inDegrees=yes

Units are S.I. units (second, meters, Newtons, ...)
If the header above contains a line with 'inDegrees', this indicates whether rotational values are in degrees (yes) or radians (no).

endheader
time	ground_thorax_rot_x	ground_thorax_rot_y	ground_thorax_rot_z	ground_thorax_tx	ground_thorax_ty	ground_thorax_tz	clav_prot	clav_elev	scapula_abduction	scapula_elevation	scapula_upward_rot	scapula_winging	plane_elv	shoulder_elv	axial_rot	elbow_flexion	pro_sup
      1.12000000	      0.17528868	     -1.42634085	    -20.69973777	     -0.02676420	     -0.00858269	      0.02934633	    -22.47757032	    -18.12804741	    -14.73373366	    -13.29836563	      9.12131835	     35.39469900	      6.00000000	     43.22509215	    -23.56501752	     10.43605761	     63.92270238
      1.14000000	     -0.00873184	     -0.97908335	    -20.23320555	     -0.02858497	     -0.00677480	      0.02805181	    -22.47842689	    -18.45662732	    -14.33268325	    -13.64600434	      9.57535302	     35.49948508	      6.00000000	     43.97258659	    -23.65536453	     11.20908442	     63.92270238
      1.16000000	     -0.27432291	     -0.59907947	    -19.77541212	     -0.03047278	     -0.00502350	      0.02679142	    -22.39977121	    -18.78269143	    -13.84416331	    -13.97252328	      9.97231833	     35.59585962	      6.00000000	     44.82620180	    -23.96708524	     12.11332441	     63.92270238
      1.18000000	     -0.80095198	     -0.37940592	    -19.39513046	     -0.03260765	     -0.00360129	      0.02560869	    -21.98615857	    -19.11802906	    -13.00340161	    -14.22823485	     10.11568462	     35.65210823	      6.00000000	     46.01646074	    -26.54120821	     13.05877373	     63.92270238
      1.20000000	     -1.14360319	      0.00696641	    -18.96005552	     -0.03477365	     -0.00191813	      0.02430220	    -21.87093883	    -19.39657276	    -12.41476413	    -14.54041206	     10.61883292	     35.70405547	      6.00000000	     46.92409053	    -27.60952173	     13.94139177	     63.92270238
      1.22000000	     -1.44910282	      0.50837414	    -18.48307897	     -0.03704103	     -0.00007356	      0.02288966	    -21.90329032	    -19.69108391	    -11.99764419	    -14.88239625	     11.17694681	     35.80178843	      6.00000000	     47.81223620	    -27.72523880	     14.68231142	     63.92270238
      1.24000000	     -1.95877607	      0.75667235	    -18.06320304	     -0.03937657	      0.00149128	      0.02173714	    -21.63188707	    -19.98737244	    -11.22429790	    -15.17241031	     11.57627563	     35.84805834	      6.00000000	     48.92317550	    -29.66214694	     15.60090919	     63.92270238
      1.26000000	     -2.38672165	      1.14210949	    -17.60842519	     -0.04181150	      0.00320265	      0.02045249	    -21.55410225	    -20.25463275	    -10.63331919	    -15.49048318	     12.15977589	     35.90612139	      6.00000000	     49.91396535	    -30.67058904	     16.37994848	     63.92270238
      1.28000000	     -2.85706118	      1.53086278	    -17.15688965	     -0.04433029	      0.00487077	      0.01922035	    -21.51496180	    -20.52938103	    -10.04947345	    -15.82757035	     12.80872279	     35.97499118	      6.00000000	     50.88403204	    -31.86914628	     17.12962538	     63.92270238
      1.30000000	     -3.26352651	      2.02320940	    -16.63029502	     -0.04693480	      0.00673194	      0.01790782	    -21.62044309	    -20.79233593	     -9.65558880	    -16.16731345	     13.49090456	     36.07522382	      6.00000000	     51.85564202	    -32.02484631	     17.71647374	     63.92270238
      1.32000000	     -3.84127865	      2.27673758	    -16.23838724	     -0.04954995	      0.00817548	      0.01685821	    -21.50407793	    -21.05313701	     -8.89083382	    -16.50476339	     14.23740087	     36.11262559	      6.00000000	     52.87208797	    -34.11337482	     18.44444834	     63.92270238
      1.34000000	     -4.34565900	      2.62341750	    -15.79091544	     -0.05223875	      0.00975299	      0.01574368	    -21.53121669	    -21.28520562	     -8.28137611	    -16.84461717	     15.08039863	     36.16136180	      6.00000000	     53.84419858	    -35.27377220	     19.01043942	     63.92270238
      1.36000000	     -4.79478833	      3.05802234	    -15.24010680	     -0.05500820	      0.01154499	      0.01459941	    -21.69077552	    -21.51478598	     -7.90196874	    -17.17056047	     15.85505428	     36.25676345	      6.00000000	     54.86422793	    -35.47629530	     19.45500053	     63.92270238
      1.38000000	     -5.37559884	      3.26520417	    -14.86488187	     -0.05776817	      0.01281505	      0.01370257	    -21.65429935	    -21.68879572	     -7.08370268	    -17.49586329	     16.89484325	     36.23591391	      6.00000000	     55.78740417	    -37.60737641	     19.96082991	     63.92270238
      1.40000000	     -5.84010683	      3.63951197	    -14.33133183	     -0.06057320	      0.01448045	      0.01269894	    -21.84877525	    -21.89479237	     -6.69472573	    -17.81376539	     17.75500621	     36.32297857	      6.00000000	     56.82311375	    -37.85182275	     20.30848229	     63.92270238
      1.42000000	     -6.41287064	      3.74527674	    -13.95610747	     -0.06334203	      0.01564152	      0.01195908	    -21.82648263	    -21.99204421	     -5.76419264	    -18.11649250	     19.02128011	     36.23686747	      6.00000000	     57.63266019	    -39.86587406	     20.60710951	     63.92270238
      1.44000000	     -6.85399102	      4.08602557	    -13.39579309	     -0.06618407	      0.01723575	      0.01105283	    -22.05103312	    -22.11869034	     -5.42266073	    -18.37511864	     19.91302141	     36.27961333	      6.00000000	     58.66438893	    -40.11352644	     20.91061345	     63.92270238
      1.46000000	     -7.31090833	      4.31790843	    -12.95788588	     -0.06896284	      0.01855725	      0.01027439	    -22.21985654	    -22.21641295	     -4.89355240	    -18.63545819	     20.96996226	     36.27313144	      6.00000000	     59.69716083	    -40.76447417	     21.10736995	     63.92270238
      1.48000000	     -7.74009684	      4.27503547	    -12.52291553	     -0.07175975	      0.01955311	      0.00978652	    -22.18307259	    -21.98653433	     -3.75699375	    -18.77202593	     22.70093647	     35.91119862	      6.00000000	     60.08904175	    -43.22604194	     21.38973459	     63.92270238
      1.50000000	     -8.15054826	      4.52366141	    -11.92795728	     -0.07455141	      0.02100942	      0.00904092	    -22.41480967	    -21.99424581	     -3.44637740	    -18.93738518	     23.61935822	     35.87431402	      6.00000000	     61.08020060	    -43.46599915	     21.59633349	     63.92270238
      1.52000000	     -8.40650798	      4.52787651	    -11.45986448	     -0.07732625	      0.02201708	      0.00853047	    -22.46827683	    -21.59580325	     -2.46306512	    -18.95570223	     25.40029074	     35.41443646	      6.00000000	     61.43136024	    -45.16381883	     21.85508271	     63.92270238
      1.54000000	     -8.76597386	      4.66839031	    -10.88344250	     -0.08001708	      0.02334029	      0.00794534	    -22.65319307	    -21.50119820	     -2.06958096	    -19.05122648	     26.38889630	     35.28937789	      6.00000000	     62.36470504	    -45.54512253	     22.00330680	     63.92270238
